<svg width="39" height="36" viewBox="0 0 39 36" fill="none" xmlns="http://www.w3.org/2000/svg">
<path d="M38.9264 18C38.9264 22.8079 36.9509 27.3277 33.3639 30.7279C29.7778 34.1268 25.009 35.9992 19.9371 36H19.9348C14.862 36 10.0924 34.1277 6.50563 30.7279C2.91861 27.3277 0.943115 22.8079 0.943115 18C0.943115 13.1921 2.91861 8.67151 6.50563 5.27206C10.0924 1.87234 14.862 0 19.9348 0H19.9371C25.009 0.000823978 29.7778 1.87317 33.3639 5.27206C36.9509 8.67151 38.9264 13.1921 38.9264 18Z" fill="#FFFEFD"/>
<path d="M27.113 15.5245C23.9852 17.2247 24.5179 22.1874 27.9106 22.1874C29.3738 22.1874 30.6402 21.1448 31.204 19.8119C32.5062 16.7336 29.7983 14.0643 27.113 15.5245Z" fill="#FF7236"/>
<path d="M23.9006 16.1391C27.6534 16.1391 28.7771 10.0992 25.2117 9.10618C23.5874 8.65392 21.7403 9.73911 21.147 11.7228C20.4813 13.9463 21.7909 16.1391 23.9006 16.1391Z" fill="#FF7236"/>
<path d="M17.2961 16.1393C18.3576 16.1393 19.2693 15.555 19.7759 14.6607C21.2818 12.0014 18.8084 8.32 15.9847 9.10841C12.4133 10.1041 13.5454 16.1393 17.2961 16.1393Z" fill="#FF7236"/>
<path d="M15.5997 20.21C16.8047 17.4157 13.9485 14.0024 11.2207 15.0764C7.93486 16.3699 9.38406 21.9488 12.997 21.9488C14.1564 21.9488 15.1417 21.2723 15.5997 20.21Z" fill="#FF7236"/>
</svg>
